<svg role="img" aria-labelledby="nova-logo-title" xmlns="http://www.w3.org/2000/svg" id="svg4" preserveAspectRatio="xMidYMid meet" version="1.1" viewbox="0 0 310 42" x="0px" xmlns:svg="http://www.w3.org/2000/svg" y="0px"><title id="nova-logo-title">NOVA Northern Virginia Community College</title> <defs id="defs4"/> <g id="g4" transform="matrix( 1, 0, 0, 1, 0,0) "> <g id="g3"> <path d="m 34.25,0.6 h -10 v 11.15 l 0.9,11.1 L 25,22.95 11.6,0.6 -0.05521291,0.59999996 0,40.65 H 9.95 V 21.95 C 9.983333,19.816667 9.7166667,17.583333 9.15,15.25 L 9.05,14.8 9.15,14.65 12.7,21.9 24.2,40.65 H 34.25 V 0.6 M 74.8,20.75 C 74.8,14.583333 73.15,9.6333333 69.85,5.9 66.383333,1.9666667 61.666667,0 55.7,0 c -6,0 -10.733333,1.9666667 -14.2,5.9 -3.333333,3.7333333 -5,8.683333 -5,14.85 0,5.866667 1.683333,10.7 5.05,14.5 3.533333,3.966667 8.233333,5.95 14.1,5.95 5.9,0 10.616667,-1.983333 14.15,-5.95 3.333333,-3.8 5,-8.633333 5,-14.5 m -24.15,-7.3 c 0.966667,-2.933333 2.633333,-4.4 5,-4.4 2.366667,0 4.05,1.466667 5.05,4.4 0.666667,1.933333 1,4.383333 1,7.35 0,7.5 -2.016667,11.25 -6.05,11.25 -4,0 -6,-3.75 -6,-11.25 0,-2.966667 0.333333,-5.416667 1,-7.35 m 34.9,27.2 H 98.1 L 110.55,0.6 h -10.1 l -7.4,25.6 -7.5,-25.6 h -12.9 l 12.9,40.05 m 39.25,-7.9 2.3,7.9 h 12.55 L 127.1,0.6 h -13 l -12.4,40.05 h 9.95 l 2.45,-7.9 h 10.7 M 116.15,24 119.45,12.4 122.7,24 Z" fill="#dda300" id="path2" stroke="none"/> <path d=" M 162.5 26 Q 164.5 26 164.6 28.65 L 167.65 28.45 Q 167.1 23.65 162.6 23.65 159.9 23.65 158.4 25.55 157 27.3 157 30.05 157 32.8 158.35 34.55 159.85 36.5 162.5 36.5 L 162.6 36.5 Q 164.6 36.6 166.05 35.3 167.55 33.95 167.65 31.95 L 164.8 31.75 Q 164.5 34.1 162.65 34.1 160.25 34.1 160.25 30.2 160.25 26 162.5 26 M 176.3 28.3 Q 175.1 26.9 173 26.9 170.95 26.9 169.75 28.25 168.6 29.55 168.6 31.65 168.6 33.75 169.75 35.05 170.95 36.45 173 36.45 L 173.35 36.45 Q 175.2 36.35 176.4 34.95 177.55 33.6 177.45 31.75 177.45 29.65 176.3 28.3 M 173 28.65 Q 173.95 28.55 174.3 29.5 174.6 30.55 174.6 31.75 174.6 34.7 173 34.7 172 34.7 171.65 33.45 171.5 32.8 171.5 31.4 171.5 28.65 173 28.65 M 181.1 27.05 L 178.55 27.05 178.55 36.3 181.2 36.3 181.2 31.4 Q 181.2 30.25 181.35 29.85 181.65 29 182.55 29 183.45 29 183.7 29.85 183.75 30.15 183.75 31.4 L 183.75 36.3 186.4 36.3 186.4 31.4 Q 186.4 30.5 186.6 29.75 186.9 29.05 187.75 29.05 188.7 29.05 188.9 29.8 189 30.85 188.95 31.4 L 188.95 36.3 191.65 36.3 191.65 30.55 Q 191.85 29.15 191.15 27.8 190.2 26.85 188.9 26.9 188.05 26.85 187.3 27.25 186.6 27.7 186.2 28.5 185.75 27.6 184.9 27.15 183.85 26.65 182.75 27.05 181.65 27.45 181.1 28.5 L 181.1 27.05 M 167.7 2.85 L 165.1 2.85 165.1 11.25 165.05 11.25 160.3 2.85 156.7 2.85 156.7 17.1 159.3 17.1 159.3 7.55 159.4 7.55 164.85 17.1 167.7 17.1 167.7 2.85 M 179.15 8.95 Q 177.8 7.35 175.4 7.35 173.05 7.35 171.7 8.95 170.4 10.4 170.4 12.8 170.4 15.2 171.7 16.7 173.05 18.3 175.4 18.3 177.7 18.3 179.1 16.75 180.45 15.25 180.45 12.9 180.45 10.5 179.15 8.95 M 175.4 9.35 Q 176.5 9.25 176.85 10.35 177.25 11.75 177.2 12.95 177.2 16.3 175.4 16.3 173.65 16.3 173.65 12.5 173.65 9.35 175.4 9.35 M 187.05 7.35 Q 185.4 7.25 184.8 9.55 L 184.75 9.55 184.75 7.55 181.95 7.55 181.95 18.1 185 18.1 185 14.1 Q 185 12.3 185.4 11.5 186 10.35 187.6 10.45 L 187.6 7.4 187.05 7.35 M 193.5 7.55 L 193.5 4.25 190.85 4.45 190.6 7.55 188.75 7.55 188.75 9.95 190.45 9.95 190.45 14.6 Q 190.45 16.9 191.3 17.6 192.45 18.4 194.05 18.3 194.55 18.3 195.75 18.1 L 195.95 18.1 195.95 15.8 195 15.8 Q 193.95 15.85 193.7 15.5 193.5 15.2 193.5 14.15 L 193.5 9.95 195.75 9.95 195.75 7.55 193.5 7.55 M 229.55 36.3 L 229.55 27.05 226.9 27.05 226.9 36.3 229.55 36.3 M 206.25 30.55 Q 206.45 29.15 205.75 27.8 204.8 26.85 203.5 26.9 202.65 26.85 201.9 27.25 201.2 27.7 200.8 28.5 200.45 27.65 199.5 27.15 198.45 26.65 197.35 27.05 196.25 27.45 195.7 28.5 L 195.7 27.05 193.15 27.05 193.15 36.3 195.8 36.3 195.8 31.4 Q 195.8 30.25 195.95 29.85 196.25 29 197.15 29 198.05 29 198.3 29.85 198.35 30.15 198.35 31.4 L 198.35 36.3 201.05 36.3 201.05 31.4 Q 201 30.6 201.2 29.75 201.6 29.05 202.35 29.05 203.3 29.05 203.5 29.8 203.65 30.45 203.55 31.4 L 203.55 36.3 206.25 36.3 206.25 30.55 M 215.7 27.05 L 213 27.05 213 32 Q 213.1 32.75 212.85 33.45 212.5 34.35 211.5 34.35 210.5 34.35 210.5 32.9 L 210.5 27.05 207.85 27.05 207.85 32.9 Q 207.7 34.25 208.3 35.45 209.15 36.7 210.55 36.45 211.4 36.55 212.15 36.05 212.9 35.55 213.2 34.7 L 213.2 36.3 215.7 36.3 215.7 27.05 M 220.9 27.3 Q 220.15 27.8 219.85 28.65 L 219.8 28.65 219.8 27.05 217.3 27.05 217.3 36.3 219.95 36.3 219.95 31.35 Q 219.9 30.45 220.25 29.7 220.7 29 221.4 29 222.3 29 222.5 29.8 222.6 30.15 222.6 31.35 L 222.6 36.3 225.25 36.3 225.25 30.6 Q 225.4 29.15 224.75 27.9 223.9 26.8 222.5 26.9 221.6 26.85 220.9 27.3 M 206.35 11.4 Q 206.5 9.8 205.75 8.5 204.7 7.25 203.1 7.35 202.25 7.3 201.5 7.75 200.75 8.2 200.35 9 L 200.35 3.85 197.3 3.85 197.3 18.1 200.35 18.1 200.35 12.4 Q 200.3 11.5 200.6 10.55 201.1 9.7 202.05 9.8 202.95 9.8 203.2 10.75 203.3 11.2 203.3 12.4 L 203.3 18.1 206.35 18.1 206.35 11.4 M 216.6 9.2 Q 215.05 7.35 212.7 7.35 210.35 7.35 208.95 9 207.6 10.55 207.6 13 L 207.6 13.55 Q 207.7 15.6 209.2 17 210.75 18.4 212.8 18.3 214.5 18.4 215.85 17.35 217.2 16.35 217.6 14.7 L 214.8 14.45 Q 214.75 15.2 214.2 15.7 213.65 16.15 212.9 16.15 L 212.7 16.1 Q 211.85 16.05 211.3 15.35 210.8 14.7 210.9 13.85 L 210.9 13.35 217.65 13.35 Q 217.8 11.2 216.6 9.2 M 212.85 9.35 Q 214.5 9.35 214.6 11.55 L 210.9 11.55 Q 211.1 9.35 212.85 9.35 M 234.6 24.15 L 232.25 24.35 232.05 27.05 230.4 27.05 230.4 29.15 231.9 29.15 231.9 33.25 Q 231.7 34.7 232.65 35.9 233.85 36.55 235.05 36.5 L 236.55 36.3 236.7 36.3 236.7 34.25 235.9 34.3 Q 235 34.35 234.75 34 234.6 33.75 234.6 32.85 L 234.6 29.15 236.55 29.15 236.55 27.05 234.6 27.05 234.6 24.15 M 229.55 23.65 L 226.9 23.65 226.9 26.25 229.55 26.25 229.55 23.65 M 224.85 10.45 L 224.85 7.4 224.35 7.35 Q 222.75 7.25 222.05 9.55 L 222.05 7.55 219.2 7.55 219.2 18.1 222.25 18.1 222.25 14.1 Q 222.25 12.3 222.65 11.5 223.25 10.35 224.85 10.45 M 234.85 11.6 Q 235 9.95 234.25 8.5 233.25 7.25 231.7 7.35 230.7 7.3 229.85 7.85 229 8.4 228.65 9.35 L 228.6 9.35 228.6 7.55 225.7 7.55 225.7 18.1 228.75 18.1 228.75 12.45 Q 228.75 11.4 229.1 10.55 229.5 9.8 230.4 9.8 231.4 9.8 231.7 10.7 231.8 11.1 231.8 12.45 L 231.8 18.1 234.85 18.1 234.85 11.6 M 266.75 26.9 Q 264.7 26.9 263.5 28.25 262.35 29.55 262.35 31.65 262.35 33.75 263.5 35.05 264.7 36.45 266.75 36.45 L 267.1 36.45 Q 268.95 36.35 270.15 34.95 271.3 33.6 271.2 31.75 271.2 29.65 270.05 28.3 268.85 26.9 266.75 26.9 M 266.75 28.65 Q 267.7 28.55 268.05 29.5 268.4 30.65 268.3 31.75 268.3 34.7 266.75 34.7 265.75 34.7 265.4 33.45 265.25 32.8 265.25 31.4 265.25 28.65 266.75 28.65 M 245.55 27.05 L 243.55 27.05 241.85 32.55 240.1 27.05 237.2 27.05 240.6 36.3 240.55 36.4 Q 240.5 36.9 240.05 37.25 239.65 37.55 239.1 37.45 L 237.75 37.3 237.75 39.4 239.1 39.5 Q 240.85 39.5 241.65 38.4 242.05 37.85 242.75 35.7 L 245.55 27.05 M 258.3 28.65 L 261.35 28.45 Q 260.85 23.65 256.3 23.65 253.65 23.65 252.1 25.55 250.7 27.3 250.7 30.05 250.7 32.8 252.05 34.55 253.55 36.5 256.2 36.5 L 256.3 36.5 Q 258.3 36.6 259.75 35.3 261.25 33.95 261.35 31.95 L 258.55 31.75 Q 258.15 34.1 256.35 34.1 253.95 34.1 253.95 30.2 253.95 26 256.2 26 258.3 26 258.3 28.65 M 246 18.1 L 249.6 18.1 253.9 3.85 251.1 3.85 248.15 14.05 245.25 3.85 241.7 3.85 246 18.1 M 258.1 7.55 L 255.05 7.55 255.05 18.1 258.1 18.1 258.1 7.55 M 258.1 3.65 L 255.05 3.65 255.05 6.6 258.1 6.6 258.1 3.65 M 275.05 23.85 L 272.4 23.85 272.4 36.3 275.05 36.3 275.05 23.85 M 279.5 23.85 L 276.8 23.85 276.8 36.3 279.5 36.3 279.5 23.85 M 265.9 10.45 L 265.9 7.4 265.35 7.35 Q 263.7 7.25 263.1 9.55 L 263.05 9.55 263.05 7.55 260.2 7.55 260.2 18.1 263.25 18.1 263.25 14.1 Q 263.25 12.35 263.7 11.5 264.3 10.35 265.9 10.45 M 281.7 7.55 L 278.65 7.55 278.65 18.1 281.7 18.1 281.7 7.55 M 277.9 5.85 L 277.05 5.75 Q 275.85 5.75 275.35 6.2 274.8 6.6 274.65 7.8 273.3 7.35 271.85 7.35 269.95 7.35 268.65 8.05 267 8.9 267 10.65 267 11.55 267.5 12.25 268.05 13 268.9 13.25 266.75 14.05 266.75 15.55 266.85 17.05 268.1 17.45 267.4 17.55 266.85 18.05 266.35 18.6 266.3 19.35 266.3 21.8 271.75 21.8 273.65 21.95 275.6 21.25 276.55 20.95 277.2 20.15 277.8 19.4 277.85 18.4 277.85 15.8 273.9 15.6 L 272.6 15.55 Q 271.8 15.55 270.3 15.35 269.7 15.2 269.7 14.5 269.8 14 270.25 13.75 L 272 13.9 Q 273.85 13.9 275.1 13.2 276.7 12.35 276.7 10.7 276.7 9.45 275.85 8.6 275.95 8.2 276.3 7.95 276.65 7.65 277.1 7.7 L 277.9 7.8 277.9 5.85 M 271.8 9.05 Q 272 9 272.2 9.05 272.85 9.15 273.3 9.65 273.7 10.15 273.6 10.8 273.55 11.45 273 11.9 272.5 12.3 271.8 12.2 L 271.55 12.2 Q 270.9 12.15 270.5 11.7 270.1 11.25 270.15 10.6 L 270.15 10.4 Q 270.25 9.75 270.7 9.35 271.2 9 271.8 9.05 M 272.05 19.95 Q 271.1 20 269.8 19.75 269 19.5 269 18.9 269.1 18.2 269.7 18.05 L 273.8 18.2 Q 274.95 18.35 274.95 18.95 274.95 19.95 272.05 19.95 M 281.7 3.65 L 278.65 3.65 278.65 6.6 281.7 6.6 281.7 3.65 M 288.55 28.5 Q 287.25 26.8 285.2 26.9 283.1 26.9 281.85 28.35 280.7 29.7 280.7 31.8 L 280.7 32.3 Q 280.8 34.1 282.1 35.35 283.45 36.6 285.25 36.5 286.75 36.55 287.95 35.65 289.1 34.75 289.45 33.3 L 287 33.1 Q 286.95 33.75 286.5 34.15 286 34.6 285.35 34.55 L 285.15 34.55 Q 284.4 34.5 283.95 33.9 283.5 33.3 283.6 32.6 L 283.6 32.15 289.5 32.15 Q 289.65 30.25 288.55 28.5 M 285.3 28.65 Q 286.75 28.65 286.85 30.55 L 283.6 30.55 Q 283.7 28.65 285.3 28.65 M 300.1 31.8 L 300.1 32.3 Q 300.2 34.1 301.5 35.35 302.85 36.6 304.65 36.5 306.15 36.55 307.35 35.65 308.5 34.75 308.85 33.3 L 306.4 33.1 Q 306.35 33.75 305.9 34.15 305.4 34.6 304.75 34.55 L 304.55 34.55 Q 303.8 34.5 303.35 33.9 302.9 33.3 303 32.6 L 303 32.15 308.9 32.15 Q 309.05 30.25 307.95 28.5 306.65 26.8 304.6 26.9 302.5 26.9 301.25 28.35 300.1 29.7 300.1 31.8 M 304.7 28.65 Q 306.15 28.65 306.25 30.55 L 302.95 30.55 Q 303.15 28.65 304.7 28.65 M 300 27.3 L 300 25.55 299.25 25.5 Q 298.2 25.5 297.8 25.9 297.3 26.25 297.2 27.3 296.15 26.9 294.75 26.9 293.1 26.9 291.95 27.5 290.5 28.25 290.5 29.75 290.5 31.45 292.15 32.05 290.3 32.75 290.3 34.1 290.3 35.35 291.45 35.75 290.8 35.8 290.35 36.3 289.9 36.75 289.85 37.4 289.85 39.55 294.6 39.55 296.4 39.65 298 39.05 298.85 38.8 299.35 38.1 299.9 37.4 299.95 36.55 299.95 34.3 296.55 34.1 L 295.35 34.05 Q 294.25 34.05 293.4 33.85 292.85 33.75 292.85 33.15 292.85 32.7 293.3 32.5 L 294.85 32.6 Q 296.45 32.6 297.55 32 298.95 31.25 298.95 29.8 299 28.75 298.25 28 298.3 27.65 298.6 27.4 298.9 27.15 299.3 27.2 L 300 27.3 M 295.95 28.9 Q 296.35 29.35 296.25 29.9 296.2 30.5 295.7 30.85 295.25 31.25 294.7 31.15 L 294.45 31.15 Q 293.9 31.1 293.55 30.7 293.15 30.3 293.2 29.75 L 293.25 29.55 Q 293.3 29 293.7 28.65 294.15 28.3 294.7 28.35 L 295.05 28.35 Q 295.6 28.45 295.95 28.9 M 296.45 36.4 Q 297.4 36.4 297.4 37 297.4 37.9 294.9 37.9 294.2 37.95 292.9 37.75 292.25 37.45 292.25 37 292.25 36.45 292.8 36.25 L 296.45 36.4 M 289.55 7.35 Q 288.55 7.3 287.7 7.85 286.85 8.4 286.5 9.35 L 286.5 7.55 283.6 7.55 283.6 18.1 286.65 18.1 286.65 12.45 Q 286.55 11.4 287 10.55 287.4 9.8 288.3 9.8 289.3 9.8 289.55 10.7 289.65 11.1 289.65 12.45 L 289.65 18.1 292.7 18.1 292.7 11.6 Q 292.95 10 292.15 8.5 291.1 7.25 289.55 7.35 M 297.6 7.55 L 294.55 7.55 294.55 18.1 297.6 18.1 297.6 7.55 M 297.6 6.6 L 297.6 3.65 294.55 3.65 294.55 6.6 297.6 6.6 M 307.8 8.3 Q 306.25 7.3 304.45 7.35 302.5 7.35 301.25 8.05 299.65 8.9 299.45 10.65 L 302.3 10.9 Q 302.3 10.2 302.85 9.8 303.35 9.4 304.15 9.4 304.85 9.35 305.4 9.9 305.75 10.45 305.65 11.25 L 305.65 11.55 Q 303.45 11.65 301.5 12.2 300.45 12.5 299.8 13.35 299.15 14.2 299.1 15.3 299.1 16.75 300.05 17.55 300.95 18.3 302.45 18.3 304.65 18.4 305.8 16.45 305.8 17.55 305.95 18.1 L 309 18.1 Q 308.75 17.5 308.75 16.55 L 308.75 11.6 Q 308.75 10.25 308.65 9.8 308.5 8.9 307.8 8.3 M 305.65 13.05 L 305.65 13.5 Q 305.8 14.55 305.25 15.5 304.75 16.3 303.7 16.4 L 303.5 16.4 Q 303 16.35 302.65 15.95 302.3 15.55 302.35 15 302.35 14 303.55 13.5 304.2 13.25 305.65 13.05 Z" fill="#005E2C" id="path3" stroke="none"/> </g> <path d=" M 147.8 0.6 L 147.8 40.55" fill="none" id="path4" stroke="#005E2C" stroke-linecap="butt" stroke-linejoin="miter" stroke-miterlimit="4" stroke-width="1.5"/> </g> </svg>
